<?xml version="1.0" encoding="utf-8"?>
<!-- Generator: Adobe Illustrator 24.0.2, SVG Export Plug-In . SVG Version: 6.00 Build 0)  -->
<svg version="1.1" id="Layer_1" xmlns="http://www.w3.org/2000/svg" xmlns:xlink="http://www.w3.org/1999/xlink" x="0px" y="0px"
	 viewBox="0 0 480 480" style="enable-background:new 0 0 480 480;" xml:space="preserve">
<style type="text/css">
	.st0{fill:#37474F;}
	.st1{fill:#FFFFFF;}
	.st2{fill:#90A4AE;}
</style>
<path class="st0" d="M240,6.6C111.6,6.6,6.6,111.6,6.6,240s105,233.4,233.4,233.4s233.4-105,233.4-233.4S368.4,6.6,240,6.6z
	 M240,350.9c-60.7,0-110.9-49-110.9-110.9s49-110.9,110.9-110.9s110.9,49,110.9,110.9S300.7,350.9,240,350.9z"/>
<path class="st1" d="M362.5,240c0,67.7-54.9,122.5-122.5,122.5S117.5,307.7,117.5,240S172.3,117.5,240,117.5S362.5,172.3,362.5,240z
	"/>
<path d="M233,214.3C233,214.3,233,215.5,233,214.3C233,215.5,233,214.3,233,214.3S233,213.2,233,214.3
	C233,213.2,233,214.3,233,214.3z M221.3,180.5C221.3,179.3,221.3,179.3,221.3,180.5C221.3,179.3,221.3,179.3,221.3,180.5
	C222.5,180.5,222.5,180.5,221.3,180.5L221.3,180.5z"/>
<path d="M256.3,317V214.3c0,0,3.5-1.2,4.7-2.3s1.2-3.5,1.2-4.7s-3.5-22.2-3.5-23.3c0-2.3-1.2-3.5-4.7-4.7c-1.2-1.2-9.3-4.7-9.3-4.7
	v-2.3h-1.2V170c2.3-2.3,2.3-5.8,2.3-5.8c1.2-1.2,1.2-2.3,1.2-4.7c0-1.2,0-1.2,0-1.2c0-3.5,1.2-10.5-4.7-10.5c0,0,0-1.2-1.2-1.2
	c-11.7-1.2-10.5,7-10.5,11.7c0,0-1.2,0-1.2,1.2s0,3.5,2.3,4.7l1.2,7c3.5,1.2,3.5,2.3,3.5,2.3h-1.2l2.3,4.7l3.5-3.5
	c0,0,2.3,1.2,3.5,1.2c2.3,7,1.2,19.8,0,24.5l0,0c-1.2-8.2-10.5-28-14-29.2c0,0-2.3,1.2-3.5,2.3c1.2-4.7,0-5.8,0-7
	c0,0-1.2-1.2-2.3-2.3l0,0l0,0h1.2c1.2,0,1.2-2.3,0-2.3h-1.2v-3.5c0,0,0,0-1.2,0v-1.2h1.2l1.2-10.5l-1.2-1.2h-1.2l-1.2,10.5
	c0,0,0,0,1.2,0v1.2h-1.2v4.7l0,0c-1.2,0-1.2,0-2.3,1.2c0,1.2-1.2,3.5-1.2,4.7c0,4.7,0,9.3,4.7,9.3c1.2,0,2.3-1.2,3.5-1.2
	c0,1.2,0,3.5,0,4.7c-1.2,1.2-2.3,2.3-3.5,1.2c-3.5,0-4.7-2.3-3.5-4.7c0,0-1.2,0-1.2,1.2c-1.2,7-3.5,22.2-3.5,29.2
	c0,4.7,4.7,8.2,5.8,8.2s2.3,0,2.3,0l-7,108.5c0,0,2.3,5.8,4.7,5.8c4.7,0,8.2-4.7,8.2-4.7s9.3-65.4,10.5-72.4l0,0
	c0,14,3.5,21,2.3,25.7c-1.2,4.7,1.2,38.5,2.3,46.7c0,0,9.3,1.2,11.7,1.2c8.2,1.2,12.8,0,12.8-2.3C269.2,322.9,262.2,322.9,256.3,317
	z M234.2,215.5h-2.3c0,0-1.2,0-1.2-1.2c1.2-2.3,0-4.7-1.2-7h3.5C234.2,209.7,235.3,212,234.2,215.5z M249.3,188.6v-2.3
	c0,0,4.7,1.2,4.7,3.5C254,189.8,250.5,189.8,249.3,188.6z"/>
<path class="st2" d="M305.4,85.9c-61.9-58.4-148.2-54.9-151.7-54.9c-1.2,0-8.2,0-19.8,1.2c-17.5,9.3-33.8,19.8-47.9,32.7
	c33.8-8.2,67.7-9.3,67.7-9.3c1.2,0,80.5-3.5,134.2,47.9c30.3,29.2,57.2,71.2,60.7,122.5c0,4.7,1.2,8.2,1.2,12.8l0,0l0,0
	c0,60.7-49,110.9-110.9,110.9c78.2,0,135.4-43.2,135.4-109.7C375.4,174.6,343.9,122.1,305.4,85.9z"/>
<path class="st2" d="M406.9,228.3c24.5-81.7-18.7-157.6-19.8-159.9c0-1.2-3.5-7-9.3-16.3c-16.3-11.7-32.7-21-51.4-28
	c23.3,25.7,38.5,56,38.5,56c0,1.2,39.7,70,18.7,141.2c-11.7,40.8-37.3,82.9-81.7,110.9c-3.5,2.3-7,4.7-10.5,7l0,0l0,0
	C236.5,366,170,345,142,290.2c36.2,70,100.4,100.4,159.9,70C359,331,391.7,278.5,406.9,228.3z"/>
<path class="st2" d="M331,380c82.9-18.7,128.4-92.2,130.7-95.7c0-1.2,4.7-7,10.5-16.3c2.3-19.8,2.3-38.5,0-58.4
	c-11.7,32.7-30.3,60.7-30.3,61.9c0,1.2-42,68.9-114.4,84c-40.8,9.3-91,8.2-136.5-17.5c-3.5-2.3-7-3.5-10.5-7l0,0l0,0
	c-50.2-33.8-64.2-102.7-30.3-152.9c-44.3,65.4-39.7,136.5,16.3,173.9C219,388.2,279.7,391.7,331,380z"/>
<path class="st2" d="M165.3,389.4c57.2,61.9,144.7,64.2,148.2,64.2c1.2,0,8.2,0,19.8,0c17.5-8.2,35-17.5,50.2-29.2
	c-33.8,7-67.7,4.7-68.9,4.7c-1.2,0-80.5-2.3-130.7-56c-29.2-30.3-52.5-73.5-53.7-126c0-4.7,0-8.2,0-12.8l0,0
	c3.5-60.7,56-107.4,116.7-103.9c-78.2-4.7-137.7,35-141.2,101.5C101.1,297.2,129.1,350.9,165.3,389.4z"/>
<path class="st2" d="M73.1,254c-23.3,81.7,21,157.6,22.2,159.9c0,1.2,3.5,7,9.3,16.3c16.3,11.7,32.7,19.8,51.4,26.8
	c-23.3-25.7-39.7-54.9-39.7-56s-39.7-70-19.8-141.2c11.7-40.8,36.2-84,80.5-112c3.5-2.3,7-4.7,10.5-7l0,0
	c53.7-28,121.4-8.2,149.4,45.5c-36.2-70-101.5-99.2-159.9-67.7C119.8,151.3,88.3,203.8,73.1,254z"/>
<path class="st2" d="M149,100c-82.9,18.7-128.4,92.2-130.7,95.7c0,1.2-4.7,7-10.5,16.3c-2.3,19.8-2.3,38.5,0,58.4
	c11.7-32.7,30.3-60.7,30.3-61.9c0-1.2,42-68.9,114.4-84c40.8-9.3,91-8.2,136.5,17.5c3.5,2.3,7,3.5,10.5,7l0,0l0,0
	c50.2,33.8,64.2,102.7,30.3,152.9c44.3-65.4,39.7-136.5-16.3-173.9C261,91.8,200.3,88.3,149,100z"/>
<path class="st2" d="M240,368.4c-71.2,0-128.4-57.2-128.4-128.4S168.8,111.6,240,111.6S368.4,168.8,368.4,240S311.2,368.4,240,368.4
	z M240,135c-58.4,0-105,46.7-105,105s46.7,105,105,105s105-46.7,105-105S298.4,135,240,135z"/>
</svg>
