<svg fill="#000000" xmlns="http://www.w3.org/2000/svg"  viewBox="0 0 50 50" width="500px" height="500px"><path d="M 7.8125 18.15625 C 3.476563 18.15625 0 23.867188 0 28.625 C 0 30.082031 0.65625 33.84375 4.0625 33.84375 C 8.398438 33.84375 11.59375 27.996094 11.59375 23.5625 C 11.59375 19.320313 9.050781 18.15625 7.8125 18.15625 Z M 19.9375 18.15625 C 15.601563 18.15625 12.09375 23.867188 12.09375 28.625 C 12.09375 30.082031 12.78125 33.84375 16.1875 33.84375 C 20.523438 33.84375 23.6875 27.996094 23.6875 23.5625 C 23.6875 19.320313 21.175781 18.15625 19.9375 18.15625 Z M 25.71875 18.3125 C 25.71875 18.3125 24.125 21.320313 24.125 22.5 L 26.28125 22.5 C 26.441406 21.390625 27.28125 20.28125 27.28125 20.28125 L 32.1875 20.28125 C 30.300781 25.085938 26.078125 26.570313 23.75 33.53125 L 27.78125 33.53125 C 28.824219 28.097656 36.164063 24.003906 36.125 18.3125 Z M 37.15625 18.3125 C 37.15625 18.3125 37.011719 19.941406 36.5 21.21875 L 44.09375 21.21875 C 44.253906 20.769531 44.679688 20.46875 45.15625 20.46875 L 48.90625 20.46875 C 50.011719 19.578125 50 18.3125 50 18.3125 Z M 8 19.625 C 8.121094 19.625 8.625 19.792969 8.625 21.125 C 8.625 25.691406 4.675781 32.25 3.28125 32.25 C 2.777344 32.25 2.65625 31.445313 2.65625 30.84375 C 2.65625 28.492188 6.101563 19.625 8 19.625 Z M 20.125 19.625 C 20.246094 19.625 20.71875 19.792969 20.71875 21.125 C 20.71875 25.691406 16.800781 32.25 15.40625 32.25 C 14.902344 32.25 14.75 31.445313 14.75 30.84375 C 14.75 28.492188 18.226563 19.625 20.125 19.625 Z M 36.09375 22 C 36.09375 22 35.65625 22.515625 35.65625 23.4375 C 35.65625 24.234375 36.75 25.40625 36.75 25.40625 C 36.75 25.40625 36.59375 24.648438 36.59375 24.15625 C 36.59375 23.664063 36.9375 23.375 36.9375 23.375 L 39.34375 23.375 C 39.34375 23.375 38.5 25.296875 38.125 25.8125 C 37.75 26.328125 36.75 26.4375 36.75 26.4375 L 33.09375 26.4375 L 32.4375 27.25 C 32.4375 27.25 36.238281 27.28125 37.3125 27.28125 C 38.386719 27.28125 39.007813 26.382813 39.3125 25.84375 C 39.617188 25.304688 40.523438 23.851563 40.78125 23.40625 C 41.039063 22.960938 41.398438 22.875 42.125 22.875 C 42.851563 22.875 43.375 22 43.375 22 Z"/></svg>